<?xml version="1.0" encoding="UTF-8"?>
<svg width="327" height="132" viewBox="0 0 1792 1792" class="css-1j8o68f"><defs id="SvgjsDefs1659"></defs><g id="SvgjsG1660" featurekey="symbolContainer" transform="matrix(1,0,0,1,20,20)" fill="#3f72af"><rect xmlns="http://www.w3.org/2000/svg" width="87" height="112" rx="10" ry="10"></rect></g><g id="SvgjsG1661" featurekey="symbolFeature-0" transform="matrix(0.8050061071620774,0,0,0.8050061071620774,23.47805298606062,35.74877108237644)" fill="#ffffff"><path xmlns="http://www.w3.org/2000/svg" d="M67.265,61.243c-4.666-3.506-17.337-9.167-15.692-16.715c1.273-5.852,6.446-6.658,9.41-10.974  c2.477-3.607,0.55-7.661-0.731-11.454c-1.826-5.415-0.243-8.532,0.489-13.895c0.036-0.258-1.191-0.279-1.263-0.533  c-0.688,7.114-3.053,11.749-6.052,14.915c-4.385,4.63-15.596,12.43-13.891,23.641c0,0-5.362-14.868,1.95-29.003  c1.669-3.228,7.922-11.334,7.922-11.334s-1.583-0.613-1.584-0.61c-2.315,3.169-4.748,6.139-7.725,8.92  c-3.266,3.051-8.493,4.295-10.156,8.463c-1.734,4.354,0.996,9.01,2.042,13.138c1.612,6.372-0.502,13.262,1.134,19.805  c1.762,7.053,5.066,17.41,0.879,24.682c-4.18,7.262-13.447,8.591-13.473,8.595c0.73-0.107,4.099,2.749,4.98,3.11  c4.277,1.751,7.033-0.812,11.112,0.051c5.691,1.206,10.2,4.41,16.082,1.468c5.288-2.644,9.66-7.162,13.407-8.043  c3.746-0.882,9.504,1.706,10.723,4.388c0.785,1.726,0.917,2.545,0.917,2.545c1.033-1.327,1.65-8.176,1.711-9.44  C79.894,73.799,74.225,66.475,67.265,61.243z"></path></g><g id="SvgjsG1662" featurekey="nameFeature-0" transform="matrix(0.5584642233856894,0,0,0.5584642233856894,125.43630060059446,51.29842985196471)" fill="#112d4e"><path d="M23.4 25 c0 3.6 -2.6 6.2 -6.6 6.2 l-8.8 0 l0 8.8 l-5.2 0 l0 -28 l14 0 c4 0 6.6 2.6 6.6 6.2 l0 6.8 z M8 16.4 l0 10.4 l7.4 0 c1.6 0 2.8 -1.2 2.8 -2.6 l0 -5.2 c0 -1.4 -1.2 -2.6 -2.8 -2.6 l-7.4 0 z M40.675 12 l8.6 25.8 l0 2.2 l-5.2 0 l-1.8 -6 l-10 0 l-1.8 6 l-5.2 0 l0 -2.2 l8.6 -25.8 l6.8 0 z M37.075 17.6 l-3.6 12 l7.6 0 l-3.6 -12 l-0.4 0 z M69.35 31.2 l0.4 0 l-0.6 -7.2 l0 -12 l5.2 0 l0 28 l-5.4 0 l-10.4 -19.2 l-0.4 0 l0.6 7.2 l0 12 l-5.2 0 l0 -28 l5.4 0 z M80.825 40 l0 -28 l19.2 0 l0 3 l-1.4 1.4 l-12.6 0 l0 7.2 l10.2 0 l0 4.4 l-10.2 0 l0 7.6 l14 0 l0 4.4 l-19.2 0 z M125.1 23.4 c0 5 -4.6 5.8 -4.6 5.8 l5.4 8.6 l0 2.2 l-5.2 0 l-5.4 -10.4 l-5.6 0 l0 10.4 l-5.2 0 l0 -28 l14 0 c4 0 6.6 2.6 6.6 6.2 l0 5.2 z M109.7 16.4 l0 8.8 l7.4 0 c1.6 0 2.8 -1.2 2.8 -2.6 l0 -3.6 c0 -1.4 -1.2 -2.6 -2.8 -2.6 l-7.4 0 z M135.97500000000002 40 l-5.2 0 l0 -28 l5.2 0 l0 28 z M153.32500000000002 40 l0 -28 l14.2 0 c4 0 6.6 2.6 6.6 6.2 l0 15.6 c0 3.6 -2.6 6.2 -6.6 6.2 l-14.2 0 z M168.925 33 l0 -14 c0 -1.4 -1.2 -2.6 -2.8 -2.6 l-7.6 0 l0 19.2 l7.6 0 c1.6 0 2.8 -1.2 2.8 -2.6 z M179.8 40 l0 -28 l19.2 0 l0 3 l-1.4 1.4 l-12.6 0 l0 7.2 l10.2 0 l0 4.4 l-10.2 0 l0 7.6 l14 0 l0 4.4 l-19.2 0 z M222.275 34 c0 3.2 -2.8 6 -6.8 6 l-13.4 0 l0 -4.4 l11.8 0 c2 0 3.2 -1.2 3.2 -2.8 l0 -1.4 c0 -1.6 -0.6 -2.4 -1.6 -2.6 l-8.2 -1.8 c-2.8 -0.6 -5 -2.8 -5 -6.2 l0 -2.8 c0 -3.2 2.8 -6 6.8 -6 l12.4 0 l0 3 l-1.4 1.4 l-9.4 0 c-2 0 -3.2 1.2 -3.2 2.8 l0 1 c0 1.6 0.6 2.2 1.6 2.4 l8.2 1.8 c2.8 0.6 5 2.8 5 6.4 l0 3.2 z M232.55 40 l-5.2 0 l0 -28 l5.2 0 l0 28 z M243.425 19 l0 14 c0 1.4 1.2 2.6 2.8 2.6 l7.4 0 l0 -11 l5.2 0 l0 15.4 l-14 0 c-4 0 -6.6 -2.6 -6.6 -6.2 l0 -15.6 c0 -3.6 2.6 -6.2 6.6 -6.2 l13 0 l0 3 l-1.4 1.4 l-10.2 0 c-1.6 0 -2.8 1.2 -2.8 2.6 z M280.70000000000005 31.2 l0.4 0 l-0.6 -7.2 l0 -12 l5.2 0 l0 28 l-5.4 0 l-10.4 -19.2 l-0.4 0 l0.6 7.2 l0 12 l-5.2 0 l0 -28 l5.4 0 z M292.175 40 l0 -28 l19.2 0 l0 3 l-1.4 1.4 l-12.6 0 l0 7.2 l10.2 0 l0 4.4 l-10.2 0 l0 7.6 l14 0 l0 4.4 l-19.2 0 z M336.45 23.4 c0 5 -4.6 5.8 -4.6 5.8 l5.4 8.6 l0 2.2 l-5.2 0 l-5.4 -10.4 l-5.6 0 l0 10.4 l-5.2 0 l0 -28 l14 0 c4 0 6.6 2.6 6.6 6.2 l0 5.2 z M321.05 16.4 l0 8.8 l7.4 0 c1.6 0 2.8 -1.2 2.8 -2.6 l0 -3.6 c0 -1.4 -1.2 -2.6 -2.8 -2.6 l-7.4 0 z M360.925 34 c0 3.2 -2.8 6 -6.8 6 l-13.4 0 l0 -4.4 l11.8 0 c2 0 3.2 -1.2 3.2 -2.8 l0 -1.4 c0 -1.6 -0.6 -2.4 -1.6 -2.6 l-8.2 -1.8 c-2.8 -0.6 -5 -2.8 -5 -6.2 l0 -2.8 c0 -3.2 2.8 -6 6.8 -6 l12.4 0 l0 3 l-1.4 1.4 l-9.4 0 c-2 0 -3.2 1.2 -3.2 2.8 l0 1 c0 1.6 0.6 2.2 1.6 2.4 l8.2 1.8 c2.8 0.6 5 2.8 5 6.4 l0 3.2 z"></path></g></svg>  
